<svg width="30" height="30" viewBox="0 0 30 30" fill="none" xmlns="http://www.w3.org/2000/svg">
<mask id="path-1-outside-1_1_260" maskUnits="userSpaceOnUse" x="6" y="6" width="18" height="18" fill="black">
<rect fill="white" x="6" y="6" width="18" height="18"/>
<path fill-rule="evenodd" clip-rule="evenodd" d="M15.1998 7.05569C15.1446 7.01903 15.0796 6.99966 15.0133 7.00005C14.9267 6.99862 14.8429 7.03095 14.7796 7.09019L7.10023 14.7696C7.0656 14.8044 7.03943 14.8461 7.02303 14.8914C7.00796 14.9299 7 14.9712 7 15.0133C7 15.1018 7.03518 15.1868 7.09779 15.2494C7.11534 15.2669 7.13465 15.2823 7.15529 15.2954L14.7796 22.9197C14.8435 22.9744 14.9256 23.003 15.0097 22.9997C15.0937 22.9965 15.1734 22.9617 15.2329 22.9022C15.2923 22.8427 15.3272 22.763 15.3304 22.679C15.3337 22.595 15.3051 22.5128 15.2504 22.4489L8.14544 15.3472H22.6926C22.7812 15.3472 22.8661 15.312 22.9287 15.2494C22.9913 15.1868 23.0265 15.1018 23.0265 15.0133C23.0265 14.9247 22.9913 14.8398 22.9287 14.7772C22.8661 14.7146 22.7812 14.6794 22.6926 14.6794H8.14516L15.2504 7.57099C15.2975 7.52429 15.3296 7.46462 15.3426 7.3996C15.3557 7.33458 15.3491 7.26714 15.3236 7.20589C15.2982 7.14464 15.2551 7.09235 15.1998 7.05569Z"/>
</mask>
<path fill-rule="evenodd" clip-rule="evenodd" d="M15.1998 7.05569C15.1446 7.01903 15.0796 6.99966 15.0133 7.00005C14.9267 6.99862 14.8429 7.03095 14.7796 7.09019L7.10023 14.7696C7.0656 14.8044 7.03943 14.8461 7.02303 14.8914C7.00796 14.9299 7 14.9712 7 15.0133C7 15.1018 7.03518 15.1868 7.09779 15.2494C7.11534 15.2669 7.13465 15.2823 7.15529 15.2954L14.7796 22.9197C14.8435 22.9744 14.9256 23.003 15.0097 22.9997C15.0937 22.9965 15.1734 22.9617 15.2329 22.9022C15.2923 22.8427 15.3272 22.763 15.3304 22.679C15.3337 22.595 15.3051 22.5128 15.2504 22.4489L8.14544 15.3472H22.6926C22.7812 15.3472 22.8661 15.312 22.9287 15.2494C22.9913 15.1868 23.0265 15.1018 23.0265 15.0133C23.0265 14.9247 22.9913 14.8398 22.9287 14.7772C22.8661 14.7146 22.7812 14.6794 22.6926 14.6794H8.14516L15.2504 7.57099C15.2975 7.52429 15.3296 7.46462 15.3426 7.3996C15.3557 7.33458 15.3491 7.26714 15.3236 7.20589C15.2982 7.14464 15.2551 7.09235 15.1998 7.05569Z" fill="white"/>
<path d="M15.0133 7.00005L15.0002 7.79994L15.0091 7.80008L15.018 7.80003L15.0133 7.00005ZM15.1998 7.05569L14.7576 7.72234L14.7576 7.72235L15.1998 7.05569ZM14.7796 7.09019L14.2327 6.5063L14.2232 6.51525L14.2139 6.52451L14.7796 7.09019ZM7.10023 14.7696L6.53454 14.2039L6.53287 14.2056L7.10023 14.7696ZM7.02303 14.8914L7.76784 15.1834L7.77174 15.1735L7.77536 15.1635L7.02303 14.8914ZM7.09779 15.2494L7.66349 14.6837L7.66348 14.6837L7.09779 15.2494ZM7.15529 15.2954L7.72097 14.7297L7.6582 14.6669L7.58319 14.6195L7.15529 15.2954ZM14.7796 22.9197L14.2139 23.4854L14.2358 23.5072L14.2592 23.5273L14.7796 22.9197ZM15.0097 22.9997L15.0405 23.7991H15.0405L15.0097 22.9997ZM15.2329 22.9022L14.6672 22.3365L14.6672 22.3365L15.2329 22.9022ZM15.3304 22.679L16.1298 22.7099V22.7099L15.3304 22.679ZM15.2504 22.4489L15.858 21.9286L15.8379 21.905L15.8159 21.8831L15.2504 22.4489ZM8.14544 15.3472V14.5472H6.21345L7.57988 15.913L8.14544 15.3472ZM22.9287 14.7772L22.363 15.3429L22.363 15.3429L22.9287 14.7772ZM8.14516 14.6794L7.57935 14.1138L6.2144 15.4794H8.14516V14.6794ZM15.2504 7.57099L14.687 7.00298L14.6846 7.00543L15.2504 7.57099ZM15.3426 7.3996L14.5583 7.24223L14.5583 7.24225L15.3426 7.3996ZM15.3236 7.20589L16.0625 6.89912L16.0625 6.89911L15.3236 7.20589ZM15.018 7.80003C14.9254 7.80057 14.8348 7.77353 14.7576 7.72234L15.6421 6.38904C15.4544 6.26453 15.2339 6.19875 15.0087 6.20006L15.018 7.80003ZM15.3265 7.67408C15.2382 7.7568 15.1212 7.80192 15.0002 7.79994L15.0264 6.20015C14.7322 6.19532 14.4475 6.3051 14.2327 6.5063L15.3265 7.67408ZM7.66592 15.3352L15.3453 7.65588L14.2139 6.52451L6.53455 14.2039L7.66592 15.3352ZM7.77536 15.1635C7.7525 15.2267 7.71595 15.2849 7.6676 15.3336L6.53287 14.2056C6.41525 14.3239 6.32636 14.4655 6.2707 14.6194L7.77536 15.1635ZM7.8 15.0133C7.8 15.0721 7.78888 15.1297 7.76784 15.1834L6.27822 14.5994C6.22703 14.73 6.2 14.8703 6.2 15.0133H7.8ZM7.66348 14.6837C7.7509 14.7711 7.8 14.8897 7.8 15.0133H6.2C6.2 15.314 6.31946 15.6024 6.5321 15.8151L7.66348 14.6837ZM7.58319 14.6195C7.61204 14.6377 7.63901 14.6592 7.66349 14.6837L6.5321 15.8151C6.59167 15.8746 6.65725 15.9269 6.72739 15.9713L7.58319 14.6195ZM15.3453 22.354L7.72097 14.7297L6.5896 15.8611L14.2139 23.4854L15.3453 22.354ZM14.9788 22.2003C15.0961 22.1958 15.2108 22.2357 15.3 22.3121L14.2592 23.5273C14.4762 23.7131 14.7552 23.8102 15.0405 23.7991L14.9788 22.2003ZM14.6672 22.3365C14.7502 22.2535 14.8615 22.2049 14.9788 22.2003L15.0405 23.7991C15.3259 23.7881 15.5966 23.6698 15.7986 23.4679L14.6672 22.3365ZM14.531 22.6481C14.5355 22.5308 14.5842 22.4195 14.6672 22.3365L15.7986 23.4679C16.0005 23.2659 16.1188 22.9952 16.1298 22.7099L14.531 22.6481ZM14.6427 22.9693C14.5664 22.8801 14.5265 22.7654 14.531 22.6481L16.1298 22.7099C16.1408 22.4245 16.0438 22.1455 15.858 21.9286L14.6427 22.9693ZM7.57988 15.913L14.6848 23.0147L15.8159 21.8831L8.711 14.7814L7.57988 15.913ZM22.6926 14.5472H8.14544V16.1472H22.6926V14.5472ZM22.363 14.6837C22.4504 14.5963 22.569 14.5472 22.6926 14.5472V16.1472C22.9934 16.1472 23.2818 16.0277 23.4944 15.8151L22.363 14.6837ZM22.2265 15.0133C22.2265 14.8897 22.2756 14.7711 22.363 14.6837L23.4944 15.8151C23.7071 15.6024 23.8265 15.314 23.8265 15.0133H22.2265ZM22.363 15.3429C22.2756 15.2555 22.2265 15.1369 22.2265 15.0133H23.8265C23.8265 14.7126 23.7071 14.4242 23.4944 14.2115L22.363 15.3429ZM22.6926 15.4794C22.569 15.4794 22.4504 15.4303 22.363 15.3429L23.4944 14.2115C23.2818 13.9989 22.9934 13.8794 22.6926 13.8794V15.4794ZM8.14516 15.4794H22.6926V13.8794H8.14516V15.4794ZM14.6846 7.00543L7.57935 14.1138L8.71097 15.245L15.8162 8.13655L14.6846 7.00543ZM14.5583 7.24225C14.5765 7.15146 14.6213 7.06817 14.687 7.00298L15.8137 8.139C15.9736 7.9804 16.0827 7.77778 16.127 7.55695L14.5583 7.24225ZM14.5848 7.51266C14.5493 7.42715 14.54 7.33301 14.5583 7.24223L16.127 7.55696C16.1713 7.33614 16.1488 7.10713 16.0625 6.89912L14.5848 7.51266ZM14.7576 7.72235C14.6804 7.67116 14.6203 7.59817 14.5848 7.51267L16.0625 6.89911C15.9761 6.69112 15.8298 6.51354 15.6421 6.38904L14.7576 7.72235Z" fill="white" mask="url(#path-1-outside-1_1_260)"/>
</svg>
